<svg width="79" height="72" viewBox="0 0 79 72" fill="none" xmlns="http://www.w3.org/2000/svg">
<mask id="mask0_1_11250" style="mask-type:luminance" maskUnits="userSpaceOnUse" x="69" y="14" width="10" height="16">
<path d="M69.0312 14.3802H78.9427V29.0469H69.0312V14.3802Z" fill="white"/>
</mask>
<g mask="url(#mask0_1_11250)">
<path d="M76.276 15.6095C77.7812 16.0834 78.7395 17.4688 78.7395 18.9688C78.7395 19.3126 78.6874 19.6615 78.578 20.0105L75.7655 28.8855L69.0989 26.8022L71.8749 17.9115C72.3489 16.4115 73.7343 15.448 75.2343 15.448C75.578 15.448 75.927 15.5001 76.276 15.6095Z" fill="#CEAA67"/>
</g>
<mask id="mask1_1_11250" style="mask-type:luminance" maskUnits="userSpaceOnUse" x="0" y="11" width="32" height="39">
<path d="M0 11.7136H31.6979V49.047H0V11.7136Z" fill="white"/>
</mask>
<g mask="url(#mask1_1_11250)">
<path d="M15.5364 12.6407C15.5364 12.6407 8.51034 21.0678 0.083252 21.0678V25.2814C0.083252 42.1355 15.5364 47.7553 15.5364 47.7553C15.5364 47.7553 30.9843 42.1407 30.9843 25.2814V21.0678C22.5572 21.0678 15.5364 12.6407 15.5364 12.6407ZM24.3124 30.2866L15.8853 37.3074C15.4062 37.6928 14.7916 37.9272 14.1301 37.9272C13.3541 37.9272 12.651 37.6095 12.1458 37.1043L7.927 32.8855C7.42179 32.3803 7.10409 31.6772 7.10409 30.9012C7.10409 29.3491 8.3645 28.0939 9.91659 28.0939C10.6926 28.0939 11.3958 28.4064 11.901 28.9168L14.3385 31.3491L20.802 25.896C21.2864 25.5105 21.8958 25.2814 22.5572 25.2814C24.1093 25.2814 25.3697 26.5418 25.3697 28.0939C25.3697 28.9793 24.9583 29.771 24.3124 30.2866Z" fill="#CEAA67"/>
</g>
<path d="M72.9949 42.974L65.974 65.4479C65.6147 66.5938 64.547 67.4219 63.2917 67.4219C61.7397 67.4219 60.4792 66.1615 60.4792 64.6094C60.4792 64.3177 60.5261 64.0365 60.6095 63.7708L67.6303 41.2969C67.9897 40.1562 69.0522 39.3281 70.3126 39.3281C71.8647 39.3281 73.1199 40.5885 73.1199 42.1354C73.1199 42.4323 73.0782 42.7135 72.9949 42.974Z" fill="#CEAA67"/>
<mask id="mask2_1_11250" style="mask-type:luminance" maskUnits="userSpaceOnUse" x="7" y="0" width="71" height="72">
<path d="M7.698 0.00524902H77.0313V71.7136H7.698V0.00524902Z" fill="white"/>
</mask>
<g mask="url(#mask2_1_11250)">
<path d="M36.724 0.46875C35.7501 0.166667 34.7657 0 33.7917 0C29.4063 0 25.3699 2.75521 24.0001 7.13542L21.6928 14.5417C24.1407 16.401 27.4688 18.2604 30.9845 18.2604H33.7917V21.1979C34.0157 21.1198 34.2501 21.0729 34.4949 21.0729C34.7084 21.0729 34.9115 21.099 35.1042 21.1615L53.3647 26.776C54.2293 27.0365 54.8647 27.8438 54.8647 28.7969C54.8647 29.9583 53.9167 30.901 52.7553 30.901C52.547 30.901 52.3386 30.8698 52.1511 30.8125L33.8907 25.1979C33.8542 25.1875 33.8282 25.1615 33.7917 25.151V25.2813C33.7917 27.8385 33.4428 30.1719 32.8595 32.3281C32.9376 32.3229 33.0105 32.3073 33.0938 32.3073C33.3022 32.3073 33.5053 32.3385 33.698 32.3958L47.7449 36.6094C48.6095 36.8698 49.2449 37.6771 49.2449 38.6302C49.2449 39.7917 48.3022 40.7344 47.1355 40.7344C46.9272 40.7344 46.724 40.7031 46.5313 40.6458L32.4845 36.4323C32.1459 36.3281 31.8595 36.125 31.6147 35.8802C30.6042 38.2031 29.3074 40.25 27.8595 42.0208L37.9115 45.0365C38.7813 45.2969 39.4115 46.1042 39.4115 47.0573C39.4115 48.2188 38.4688 49.1615 37.3074 49.1615C37.0938 49.1615 36.8907 49.1302 36.698 49.0729L24.5782 45.4375C21.7188 47.9479 18.7345 49.5833 16.4949 50.3958L15.5365 50.7448L14.5782 50.3958C13.5313 50.0156 12.3178 49.4479 11.0313 48.7031L8.59904 56.5C8.54175 56.6875 8.5105 56.8802 8.5105 57.0729C8.5105 57.901 9.03654 58.625 9.84904 58.8802L50.323 71.5469C50.5053 71.6042 50.698 71.6354 50.8855 71.6354C51.6928 71.6354 52.4428 71.1146 52.698 70.3021L69.3126 17.0781C69.823 15.4687 70.922 14.1458 72.4167 13.3646C73.4636 12.8177 74.6147 12.599 75.7657 12.6719L36.724 0.46875ZM41.5157 64.6094C39.5782 64.6094 38.0053 63.0417 38.0053 61.099C38.0053 59.1615 39.5782 57.5885 41.5157 57.5885C43.4584 57.5885 45.0313 59.1615 45.0313 61.099C45.0313 63.0417 43.4584 64.6094 41.5157 64.6094ZM54.0157 50.1458L48.4011 54.3594C48.047 54.625 47.6095 54.7813 47.1355 54.7813C46.5574 54.7813 46.0313 54.5417 45.6459 54.1667L42.8386 51.3542C42.4584 50.974 42.2188 50.4479 42.2188 49.8646C42.2188 48.7031 43.1667 47.7604 44.3282 47.7604C44.9063 47.7604 45.4376 47.9948 45.8178 48.375L47.3334 49.8906L51.4949 46.776C51.8438 46.5104 52.2813 46.3542 52.7553 46.3542C53.922 46.3542 54.8647 47.2969 54.8647 48.4583C54.8647 49.151 54.5313 49.7604 54.0157 50.1458ZM55.5626 19.6667C55.3542 19.6667 55.1511 19.6354 54.9584 19.5781L40.9115 15.3594C40.047 15.1042 39.4115 14.2969 39.4115 13.3438C39.4115 12.1771 40.3595 11.2344 41.5209 11.2344C41.7292 11.2344 41.9324 11.2656 42.1251 11.3281L56.172 15.5417C57.0365 15.8021 57.672 16.6042 57.672 17.5573C57.672 18.724 56.7292 19.6667 55.5626 19.6667Z" fill="#CEAA67"/>
</g>
</svg>
