<svg width="82" height="82" viewBox="0 0 82 82" fill="none" xmlns="http://www.w3.org/2000/svg">
<mask id="mask0_1_1392" style="mask-type:luminance" maskUnits="userSpaceOnUse" x="0" y="0" width="82" height="82">
<path d="M0.541626 0.875H81.3333V81.8177H0.541626V0.875Z" fill="white"/>
</mask>
<g mask="url(#mask0_1_1392)">
<path fill-rule="evenodd" clip-rule="evenodd" d="M52.7291 57.6354C46.1718 57.6354 40.8541 62.9531 40.8541 69.5104C40.8541 76.0677 46.1718 81.3802 52.7291 81.3802C59.2864 81.3802 64.6041 76.0677 64.6041 69.5104C64.6041 62.9531 59.2864 57.6354 52.7291 57.6354ZM53.1354 77.7969C52.2083 77.7969 51.4531 77.0417 51.4531 76.1146C51.4531 75.1875 52.2083 74.4375 53.1354 74.4375C54.0625 74.4375 54.8177 75.1875 54.8177 76.1146C54.8177 77.0417 54.0625 77.7969 53.1354 77.7969ZM54.6041 70.5052C54.4062 70.8073 54.4791 71.5677 54.4791 71.9479C54.4791 72.6875 53.875 73.2865 53.1354 73.2865C52.3958 73.2865 51.7916 72.6875 51.7916 71.9479C51.7916 70.8594 51.7187 70.0365 52.3489 69.0573C53.375 67.4635 55.4479 67.6823 55.4479 65.2813C55.4479 63.7813 54.2343 62.5625 52.7291 62.5625C51.2291 62.5625 50.0104 63.7813 50.0104 65.2813C50.0104 66.0208 49.4114 66.625 48.6718 66.625C47.927 66.625 47.3281 66.0208 47.3281 65.2813C47.3281 62.2969 49.7448 59.8802 52.7291 59.8802C55.7135 59.8802 58.1302 62.2969 58.1302 65.2813C58.1302 69.2448 55.4427 69.1979 54.6041 70.5052ZM28.9166 24.5365C35.4531 24.5365 40.75 19.2396 40.75 12.7083C40.75 6.17187 35.4531 0.875 28.9166 0.875C22.3854 0.875 17.0885 6.17187 17.0885 12.7083C17.0885 19.2396 22.3854 24.5365 28.9166 24.5365ZM22.4062 12.0885C22.9323 11.5677 23.7812 11.5677 24.3073 12.0885L26.6458 14.4323L33.5781 8.14063C34.125 7.64063 34.9739 7.68229 35.4687 8.22917C35.9687 8.77604 35.927 9.625 35.3802 10.1198L27.5573 17.224C27.0364 17.7552 26.177 17.7552 25.651 17.2292L22.4062 13.9844C21.8854 13.4635 21.8854 12.6146 22.4062 12.0885ZM8.30725 52.4792H16.7552C17.0989 52.4792 17.3385 52.8073 17.2343 53.1354C16.5989 55.125 14.7343 56.5729 12.5312 56.5729C10.3281 56.5729 8.4635 55.125 7.82808 53.1354C7.72392 52.8073 7.96871 52.4792 8.30725 52.4792ZM32.1718 53.1354C32.0677 52.8073 32.3073 52.4792 32.651 52.4792H41.0937C41.4375 52.4792 41.677 52.8073 41.5729 53.1354C40.9427 55.125 39.0781 56.5729 36.875 56.5729C34.6718 56.5729 32.8073 55.125 32.1718 53.1354ZM14.2448 49.7969H10.8177L12.5312 46.901L14.2448 49.7969ZM38.5885 49.7969H35.1562L36.875 46.901L38.5885 49.7969ZM48.8593 55.474V39.6719C48.8593 36.8177 46.5364 34.4896 43.6823 34.4896C31.026 34.4896 18.375 34.4896 5.72392 34.4896C2.86975 34.4896 0.541626 36.8177 0.541626 39.6719C0.541626 48.3281 0.541626 56.9896 0.541626 65.6458C0.541626 68.5 2.86975 70.8281 5.72392 70.8281H10.1093V79.2969C10.1093 80.0573 11.0312 80.4271 11.552 79.8802L20.25 70.8281H38.2343C38.1927 70.3906 38.1718 69.9531 38.1718 69.5104C38.1718 62.8073 42.6979 57.1667 48.8593 55.474ZM31.4739 45.4531C30.6979 45.1563 29.8854 44.849 28.1875 45.0625C27.8698 46.1354 27.0677 47 26.0416 47.4063V58.9844C28.427 59.375 30.4687 60.7865 31.6979 62.7552C31.9062 63.0938 31.6666 63.526 31.2708 63.526H18.1406C17.7448 63.526 17.5052 63.0938 17.7135 62.7552C18.9427 60.7865 20.9843 59.375 23.3698 58.9844L23.3645 47.4063C22.3385 47 21.5364 46.1354 21.2135 45.0625C19.5156 44.849 18.7031 45.1563 17.927 45.4531C17.1198 45.7604 16.3333 46.0573 15.1406 46.0469L17.401 49.8594C19.2448 50.2396 20.3645 52.1458 19.7916 53.9479C18.7864 57.1042 15.8489 59.2552 12.5312 59.2552C9.2135 59.2552 6.276 57.1042 5.27079 53.9479C4.69788 52.1458 5.81767 50.2396 7.66663 49.8594L11.3698 43.6146C11.6823 43.0625 12.3385 42.8073 12.9479 43C15.2083 43.6198 16.0729 43.2917 16.9843 42.9479C18.0677 42.5365 19.1979 42.1094 21.4479 42.3906C22.0416 41.1979 23.276 40.3802 24.7031 40.3802C26.1302 40.3802 27.3593 41.1979 27.9583 42.3906C30.2031 42.1094 31.3385 42.5365 32.4218 42.9479C33.3333 43.2917 34.1927 43.6198 36.4531 43.0052C37.0416 42.8125 37.6979 43.0417 38.026 43.5938L41.7395 49.8594C43.5885 50.2396 44.7031 52.1458 44.1302 53.9479C43.1302 57.1042 40.1927 59.2552 36.875 59.2552C33.552 59.2552 30.6198 57.1042 29.6145 53.9479C29.0416 52.1458 30.1614 50.2396 32.0052 49.8594L34.2656 46.0469C33.0729 46.0573 32.2864 45.7604 31.4739 45.4531ZM75.8229 8.01563H42.6562C43.1614 9.48437 43.4323 11.0625 43.4323 12.7083C43.4323 19.5573 38.6875 25.2969 32.3073 26.8229V31.8073H43.6823C48.0156 31.8073 51.5468 35.3385 51.5468 39.6719V44.6719H61.1666L69.9531 53.8177C70.4791 54.3646 71.3958 53.9896 71.3958 53.2344V44.6719H75.8229C78.7031 44.6719 81.0468 42.3229 81.0468 39.4427C81.0468 30.7083 81.0468 21.974 81.0468 13.2448C81.0468 10.3646 78.7031 8.01563 75.8229 8.01563ZM71.6562 36.401H54.375C53.6354 36.401 53.0364 35.8021 53.0364 35.0573C53.0364 34.3177 53.6354 33.7188 54.375 33.7188H71.6562C72.401 33.7188 73 34.3177 73 35.0573C73 35.8021 72.3958 36.401 71.6562 36.401ZM71.6562 27.6823H45.052C44.3125 27.6823 43.7083 27.0833 43.7083 26.3385C43.7083 25.599 44.3125 25 45.052 25H71.6562C72.3958 25 73 25.599 73 26.3385C73 27.0833 72.3958 27.6823 71.6562 27.6823ZM71.6562 18.9635H45.052C44.3125 18.9635 43.7083 18.3594 43.7083 17.6198C43.7083 16.8802 44.3125 16.276 45.052 16.276H71.6562C72.3958 16.276 73 16.8802 73 17.6198C73 18.3594 72.3958 18.9635 71.6562 18.9635Z" fill="#CEAA67"/>
</g>
</svg>
