<svg width="79" height="68" viewBox="0 0 79 68" fill="none" xmlns="http://www.w3.org/2000/svg">
<mask id="mask0_1_11249" style="mask-type:luminance" maskUnits="userSpaceOnUse" x="0" y="0" width="79" height="54">
<path d="M0.791687 0.026123H78.3334V53.0001H0.791687V0.026123Z" fill="white"/>
</mask>
<g mask="url(#mask0_1_11249)">
<path d="M71.5052 11.8178H19.3333C17.5312 3.33342 12.5937 2.79175 12.1771 2.73446H8.3854C7.78123 1.28654 6.39581 0.026123 4.71352 0.026123C2.54685 0.026123 0.802063 1.77091 0.802063 3.93758C0.802063 6.10425 2.54685 7.90633 4.71352 7.90633C6.39581 7.90633 7.78123 6.58341 8.3854 5.14071H11.9323C12.0573 5.14071 15.3646 6.16154 16.6302 13.0834C18.2552 22.2865 22.4635 45.3959 22.4635 45.3959C22.4635 47.9845 24.0312 52.6772 29.8073 52.6772H52.0729L51.1666 50.3282H29.7448C27.2812 50.3282 26.1979 48.5261 25.7135 47.2605C29.625 47.0209 40.3385 46.297 49.7864 45.6355H49.8437L45.3906 31.1928C44.9687 29.8126 45.3906 28.3074 46.4739 27.3438C47.5573 26.3803 49.2448 26.198 50.5052 26.8647L71.8073 37.6355C72.5885 37.9949 73.1302 38.6563 73.4948 39.4376L74.875 39.0782C75.3594 38.0574 75.4791 37.3334 75.4791 37.2136L77.7031 19.0417C78.2448 15.0105 75.4791 11.8178 71.5052 11.8178ZM38.7135 25.1772C38.8333 24.8751 39.1927 24.698 39.4948 24.8178L43.6458 26.323C43.9479 26.4428 44.1302 26.8022 44.0052 27.1042C43.8854 27.3438 43.6458 27.5261 43.4062 27.5261C43.3437 27.5261 43.2864 27.5261 43.1666 27.4636L39.0156 25.9584C38.7708 25.8386 38.5937 25.4792 38.7135 25.1772ZM43.1041 32.2188L39.1354 34.0834C39.0729 34.1459 38.9531 34.1459 38.8906 34.1459C38.651 34.1459 38.4114 34.0209 38.3489 33.7813C38.2291 33.4792 38.3489 33.1199 38.651 32.9376L42.625 31.073C42.9219 30.9532 43.2864 31.073 43.4635 31.3751C43.5885 31.6772 43.4635 32.099 43.1041 32.2188ZM45.9948 34.8074C46.2916 34.9272 46.4739 35.2865 46.3541 35.5886L44.8489 39.8022C44.7291 40.0417 44.5469 40.2188 44.25 40.2188C44.1875 40.2188 44.1302 40.2188 44.0677 40.1615C43.7656 40.0417 43.5885 39.6772 43.7083 39.3803L45.2135 35.1667C45.3333 34.8647 45.6927 34.6876 45.9948 34.8074ZM47.4375 24.5157C47.375 24.5782 47.2552 24.5782 47.1979 24.5782C46.9583 24.5782 46.7135 24.4532 46.6562 24.2136L44.7291 20.1824C44.6094 19.8803 44.7291 19.5209 45.0312 19.3386C45.3333 19.2188 45.6927 19.3386 45.875 19.6407L47.7396 23.672C47.8594 23.974 47.7396 24.3334 47.4375 24.5157ZM53.9375 20.5417L52.4323 24.7553C52.3125 24.9949 52.1302 25.1772 51.8281 25.1772C51.7708 25.1772 51.7083 25.1772 51.5885 25.1199C51.2864 24.9949 51.1094 24.6355 51.2291 24.3334L52.7344 20.1251C52.8541 19.823 53.2135 19.6407 53.5156 19.7605C53.9375 19.823 54.0573 20.1824 53.9375 20.5417ZM59.8333 26.6824L55.8594 28.547C55.7396 28.6095 55.6823 28.6095 55.5625 28.6095C55.3229 28.6095 55.0781 28.4897 55.0208 28.2449C54.901 27.948 55.0208 27.5834 55.3229 27.4063L59.2916 25.5365C59.5937 25.4167 59.9531 25.5365 60.1354 25.8386C60.3125 26.1407 60.1354 26.5001 59.8333 26.6824Z" fill="#CEAA67"/>
</g>
<path d="M65.6094 43.9531L70.6667 41.9688C71.1458 41.7865 71.4479 41.3646 71.4479 40.8854C71.4479 40.4011 71.2083 39.9219 70.7865 39.6771L49.4844 28.9063C49.0625 28.6667 48.5208 28.7292 48.099 29.0886C47.7396 29.3906 47.5573 29.9323 47.7396 30.4115L54.9583 53.6979C55.0781 54.1823 55.5 54.5417 56.0417 54.6042C56.526 54.6615 57.0052 54.3646 57.2448 53.9427L60.1354 48.4063L66.3333 56.6511C66.5104 56.8906 66.8125 57.0677 67.1771 57.1302C67.2344 57.1302 67.2969 57.1302 67.3542 57.1302C67.5937 57.1302 67.8958 57.0677 68.1354 56.8906L71.9271 53.9427C72.1719 53.7604 72.349 53.4583 72.4115 53.099C72.4687 52.7396 72.349 52.4375 72.1719 52.1354L65.6094 43.9531Z" fill="#CEAA67"/>
<mask id="mask1_1_11249" style="mask-type:luminance" maskUnits="userSpaceOnUse" x="54" y="57" width="13" height="11">
<path d="M54.3333 57H66.3333V67.9792H54.3333V57Z" fill="white"/>
</mask>
<g mask="url(#mask1_1_11249)">
<path d="M60.4948 57.9115C57.6667 57.9115 55.3229 60.2605 55.3229 63.1459C55.3229 66.0365 57.6667 68.3855 60.4948 68.3855C63.3229 68.3855 65.6719 66.0365 65.6719 63.1459C65.6719 60.2605 63.3229 57.9115 60.4948 57.9115Z" fill="#CEAA67"/>
</g>
<mask id="mask2_1_11249" style="mask-type:luminance" maskUnits="userSpaceOnUse" x="25" y="57" width="12" height="11">
<path d="M25 57H37V67.9792H25V57Z" fill="white"/>
</mask>
<g mask="url(#mask2_1_11249)">
<path d="M30.7083 57.9115C27.8802 57.9115 25.5364 60.2605 25.5364 63.1459C25.5364 66.0365 27.8802 68.3855 30.7083 68.3855C33.5364 68.3855 35.8854 66.0365 35.8854 63.1459C35.8854 60.2605 33.5364 57.9115 30.7083 57.9115Z" fill="#CEAA67"/>
</g>
</svg>
