<svg width="23" height="17" viewBox="0 0 23 17" fill="none" xmlns="http://www.w3.org/2000/svg">
<mask id="mask0_11_71" style="mask-type:luminance" maskUnits="userSpaceOnUse" x="0" y="0" width="23" height="17">
<path d="M0.119873 0.09375H22.1095V16.0833H0.119873V0.09375Z" fill="white"/>
</mask>
<g mask="url(#mask0_11_71)">
<path d="M13.8282 8.86458L21.5886 15.6563C21.3074 15.9219 20.9272 16.0885 20.5105 16.0885H1.71362C1.29696 16.0885 0.916748 15.9219 0.63029 15.6563L8.39591 8.86458L11.1147 11.2917L13.8282 8.86458ZM21.5938 0.526042C21.3126 0.260416 20.9324 0.09375 20.5105 0.09375H1.71362C1.29696 0.09375 0.916749 0.260415 0.635498 0.53125L11.1147 9.69271L21.5938 0.526042ZM0.135498 1.49479V14.7865L7.71362 8.21875L0.135498 1.49479ZM14.5105 8.21875L22.0886 14.7865V1.48958L14.5105 8.21875Z" fill="white"/>
</g>
</svg>
