<svg width="29" height="28" viewBox="0 0 29 28" fill="none" xmlns="http://www.w3.org/2000/svg">
<mask id="mask0_11_50" style="mask-type:luminance" maskUnits="userSpaceOnUse" x="0" y="0" width="29" height="28">
<path d="M0.114502 0.0625H28.0989V28H0.114502V0.0625Z" fill="white"/>
</mask>
<g mask="url(#mask0_11_50)">
<path d="M28.0989 14.0573C28.0989 6.32813 21.8333 0.0625 14.1041 0.0625C6.38013 0.0625 0.114502 6.32813 0.114502 14.0573C0.114502 21.0417 5.22909 26.8281 11.9218 27.8802V18.099H8.3645V14.0573H11.9218V10.974C11.9218 7.46354 14.0103 5.52604 17.203 5.52604C18.7343 5.52604 20.3385 5.80208 20.3385 5.80208V9.24479H18.5728C16.8333 9.24479 16.2916 10.3229 16.2916 11.4323V14.0573H20.1718L19.552 18.099H16.2916V27.8802C22.9843 26.8281 28.0989 21.0417 28.0989 14.0573Z" fill="white"/>
</g>
</svg>
