<svg width="29" height="29" viewBox="0 0 29 29" fill="none" xmlns="http://www.w3.org/2000/svg">
<mask id="mask0_11_45" style="mask-type:luminance" maskUnits="userSpaceOnUse" x="0" y="0" width="29" height="29">
<path d="M0.119873 0.0625H28.1095V28.0469H0.119873V0.0625Z" fill="white"/>
</mask>
<g mask="url(#mask0_11_45)">
<path d="M8.31772 0.161413C6.83335 0.229121 5.81251 0.468704 4.9271 0.817663C4.00522 1.17704 3.22397 1.6562 2.44793 2.43225C1.67189 3.2135 1.19793 3.99475 0.838555 4.91662C0.494805 5.80725 0.260428 6.82287 0.19793 8.31245C0.13022 9.80204 0.114597 10.2812 0.125013 14.0833C0.130221 17.8802 0.145847 18.3593 0.218763 19.8489C0.29168 21.3385 0.526054 22.3541 0.875013 23.2447C1.23439 24.1666 1.71876 24.9427 2.4948 25.7187C3.27605 26.4947 4.0521 26.9739 4.97918 27.3281C5.86981 27.6718 6.88543 27.9062 8.37501 27.9739C9.8646 28.0364 10.3438 28.052 14.1406 28.0468C17.9427 28.0364 18.4219 28.0208 19.9115 27.9531C21.4063 27.8802 22.4167 27.6406 23.3073 27.2968C24.224 26.9322 25.0052 26.4531 25.7813 25.677C26.5573 24.8958 27.0313 24.1145 27.3906 23.1927C27.7344 22.302 27.9688 21.2864 28.0313 19.7968C28.099 18.302 28.1146 17.8281 28.1042 14.026C28.099 10.2291 28.0833 9.74996 28.0104 8.26037C27.9427 6.76558 27.7031 5.75516 27.3542 4.86454C26.9948 3.94266 26.5156 3.16662 25.7344 2.39058C24.9583 1.61454 24.1771 1.13537 23.2552 0.781204C22.3646 0.437453 21.349 0.20308 19.8594 0.135371C18.3698 0.0728722 17.8906 0.0572462 14.0886 0.0624542C10.2865 0.0728715 9.81251 0.0884952 8.31772 0.161413ZM8.48439 25.4583C7.11981 25.3958 6.38022 25.1718 5.88543 24.9791C5.22918 24.7291 4.76564 24.4218 4.27085 23.9375C3.78126 23.4479 3.47918 22.9843 3.22397 22.3281C3.03126 21.8333 2.8021 21.0937 2.7396 19.7291C2.66668 18.2552 2.65105 17.8125 2.64585 14.0781C2.63543 10.3437 2.65105 9.901 2.71355 8.42704C2.77605 7.06246 3.00001 6.31766 3.19272 5.82808C3.44272 5.17183 3.74481 4.70829 4.23439 4.2135C4.72397 3.72391 5.18751 3.42183 5.84376 3.16662C6.33335 2.97391 7.07293 2.74475 8.43751 2.67704C9.91668 2.60933 10.3594 2.5937 14.0938 2.5885C17.8281 2.57808 18.2708 2.5937 19.75 2.6562C21.1094 2.7187 21.8542 2.94266 22.3438 3.13537C23 3.38537 23.4636 3.68746 23.9583 4.17704C24.4479 4.66662 24.75 5.13016 25.0052 5.78641C25.1979 6.276 25.4271 7.01558 25.4948 8.38016C25.5625 9.85933 25.5781 10.302 25.5833 14.0364C25.5938 17.7708 25.5781 18.2135 25.5156 19.6875C25.4531 21.052 25.2292 21.7916 25.0365 22.2864C24.7865 22.9427 24.4844 23.4062 23.9948 23.8958C23.5052 24.3906 23.0417 24.6927 22.3854 24.9479C21.8958 25.1406 21.1563 25.3697 19.7917 25.4322C18.3177 25.5052 17.875 25.5208 14.1354 25.526C10.4011 25.5364 9.95835 25.5208 8.48439 25.4583ZM19.8906 6.57808C19.8906 6.79683 19.9323 7.01037 20.0208 7.2187C20.1042 7.42183 20.2292 7.60412 20.3854 7.76037C20.5417 7.92183 20.724 8.04162 20.9323 8.12495C21.1354 8.20829 21.349 8.25516 21.5729 8.24995C21.7969 8.24995 22.0104 8.20829 22.2136 8.12495C22.4219 8.03641 22.6042 7.91662 22.7604 7.76037C22.9167 7.59891 23.0365 7.41662 23.125 7.2135C23.2083 7.00516 23.25 6.79162 23.25 6.56766C23.25 6.34891 23.2031 6.13537 23.1198 5.92704C23.0365 5.72391 22.9115 5.54162 22.7552 5.38537C22.599 5.22391 22.4167 5.10412 22.2083 5.02079C22.0052 4.93745 21.7917 4.89579 21.5677 4.89579C21.3438 4.89579 21.1302 4.93745 20.9219 5.02079C20.7188 5.10933 20.5365 5.22912 20.3802 5.38537C20.224 5.54683 20.1042 5.72912 20.0156 5.93225C19.9323 6.14058 19.8906 6.35412 19.8906 6.57808ZM6.9323 14.0677C6.93751 18.0364 10.1615 21.2447 14.1302 21.2395C18.0938 21.2343 21.3073 18.0104 21.3021 14.0416C21.2917 10.0729 18.0677 6.85933 14.099 6.86975C10.1354 6.87495 6.92189 10.0989 6.9323 14.0677ZM9.45314 14.0625C9.44793 13.4427 9.56772 12.8489 9.8021 12.276C10.0365 11.7083 10.375 11.2031 10.8125 10.7604C11.2448 10.3229 11.75 9.98433 12.3229 9.74995C12.8906 9.51037 13.4896 9.39058 14.1042 9.39058C14.724 9.39058 15.3177 9.50516 15.8906 9.73954C16.4636 9.97912 16.9688 10.3125 17.4063 10.75C17.8438 11.1875 18.1823 11.6875 18.4219 12.2604C18.6615 12.8333 18.7761 13.427 18.7813 14.0468C18.7813 14.6614 18.6615 15.2604 18.4271 15.8333C18.1927 16.401 17.8542 16.9062 17.4219 17.3437C16.9844 17.7864 16.4792 18.125 15.9063 18.3593C15.3386 18.5989 14.7448 18.7187 14.125 18.7187C13.5052 18.7187 12.9115 18.6041 12.3386 18.3697C11.7656 18.1302 11.2604 17.7968 10.8229 17.3593C10.3854 16.9218 10.0469 16.4166 9.8073 15.8489C9.57293 15.276 9.45314 14.6822 9.45314 14.0625Z" fill="white"/>
</g>
</svg>
