<svg width="30" height="28" viewBox="0 0 30 28" fill="none" xmlns="http://www.w3.org/2000/svg">
<mask id="mask0_11_56" style="mask-type:luminance" maskUnits="userSpaceOnUse" x="0" y="0" width="30" height="28">
<path d="M0 0.0625H29.3333V28H0V0.0625Z" fill="white"/>
</mask>
<g mask="url(#mask0_11_56)">
<path d="M24.3645 23.7134H20.1458V17.2707C20.1458 15.7343 20.1197 13.7603 17.953 13.7603C15.7603 13.7603 15.4218 15.4322 15.4218 17.1614V23.7134H11.2083V10.4687H15.2551V12.2759H15.3124C15.7239 11.5884 16.2864 11.052 17.0051 10.6666C17.7187 10.2864 18.4895 10.1093 19.3072 10.1353C23.578 10.1353 24.3645 12.8801 24.3645 16.4478V23.7134ZM6.44784 8.65615C6.12492 8.65615 5.81242 8.59365 5.51034 8.47386C5.21346 8.35407 4.94784 8.18219 4.71867 7.95824C4.4895 7.73428 4.31242 7.47386 4.18742 7.18219C4.06242 6.89053 3.99992 6.58844 3.99992 6.27074C3.99992 5.95303 4.06242 5.65094 4.18742 5.35407C4.31242 5.0624 4.4895 4.80719 4.71867 4.58324C4.94784 4.35928 5.20825 4.1874 5.51034 4.0624C5.81242 3.94261 6.12492 3.88011 6.44784 3.88011C6.77075 3.88011 7.08325 3.94261 7.38534 4.0624C7.68221 4.1874 7.94784 4.35928 8.177 4.58324C8.40617 4.80719 8.58325 5.0624 8.70825 5.35407C8.83325 5.64574 8.89575 5.95303 8.89575 6.27074C8.89575 6.58324 8.83325 6.89053 8.70825 7.18219C8.58325 7.47386 8.40617 7.73428 8.177 7.95824C7.94784 8.18219 7.68221 8.35407 7.38534 8.47386C7.08325 8.59365 6.77075 8.65615 6.44784 8.65615ZM8.55721 23.7134H4.33325V10.4687H8.55721V23.7134ZM26.4687 0.0624023H2.21346C1.94263 0.0624023 1.677 0.109277 1.42179 0.208236C1.16659 0.307194 0.937418 0.453027 0.739502 0.640527C0.546793 0.828027 0.390543 1.04678 0.281169 1.29157C0.177001 1.53636 0.11971 1.79678 0.114502 2.0624V25.8124C0.11971 26.0832 0.177001 26.3384 0.281169 26.5884C0.390543 26.8332 0.546793 27.052 0.739502 27.2395C0.937418 27.427 1.16659 27.5728 1.42179 27.6718C1.677 27.7707 1.94263 27.8176 2.21346 27.8176H26.4687C26.7447 27.8228 27.0103 27.7707 27.2655 27.6718C27.5208 27.5728 27.7499 27.427 27.9478 27.2395C28.1458 27.052 28.2968 26.8384 28.4062 26.5884C28.5155 26.3437 28.5728 26.0832 28.578 25.8124V2.0624C28.5728 1.79157 28.5155 1.53636 28.4062 1.28636C28.2968 1.04157 28.1458 0.82282 27.9478 0.635319C27.7499 0.44782 27.5208 0.307194 27.2655 0.203027C27.0103 0.104069 26.7447 0.0571943 26.4687 0.0624023Z" fill="white"/>
</g>
</svg>
