<svg width="19" height="27" viewBox="0 0 19 27" fill="none" xmlns="http://www.w3.org/2000/svg">
<mask id="mask0_11_76" style="mask-type:luminance" maskUnits="userSpaceOnUse" x="0" y="0" width="19" height="27">
<path d="M0.119873 0.630371H18.1147V26.62H0.119873V0.630371Z" fill="white"/>
</mask>
<g mask="url(#mask0_11_76)">
<path d="M9.13558 0.630371C4.16162 0.630371 0.130371 4.66162 0.130371 9.63037C0.130371 10.4585 0.244954 11.2606 0.453288 12.021C0.635578 12.6825 0.890788 13.3127 1.2085 13.9064C1.28662 14.0522 1.36995 14.1929 1.45329 14.3283L8.23975 26.0835C8.25537 26.1095 8.26579 26.1356 8.28141 26.1616C8.46891 26.4325 8.78141 26.6095 9.13558 26.6095C9.48454 26.6095 9.79704 26.4272 9.98454 26.1564L10.0106 26.1095L16.8127 14.3335L17.0575 13.9064C17.3752 13.3127 17.6304 12.6825 17.8127 12.021C18.021 11.2606 18.1356 10.4585 18.1356 9.63037C18.1356 4.66162 14.1043 0.630371 9.13558 0.630371ZM9.13558 13.4064C7.04704 13.4064 5.35954 11.7137 5.35954 9.63037C5.35954 7.54704 7.04704 5.85433 9.13558 5.85433C11.2189 5.85433 12.9064 7.54704 12.9064 9.63037C12.9064 11.7137 11.2189 13.4064 9.13558 13.4064Z" fill="white"/>
</g>
</svg>
