<svg width="32" height="31" viewBox="0 0 32 31" fill="none" xmlns="http://www.w3.org/2000/svg">
<mask id="mask0_1_9042" style="mask-type:luminance" maskUnits="userSpaceOnUse" x="0" y="0" width="32" height="31">
<path d="M0.296875 0H31.276V30.9792H0.296875V0Z" fill="white"/>
</mask>
<g mask="url(#mask0_1_9042)">
<path d="M9.32819 0.109313C7.68756 0.187439 6.56777 0.447856 5.5886 0.833272C4.57298 1.22911 3.7136 1.75515 2.85944 2.61452C2.00527 3.4739 1.47923 4.33327 1.0886 5.3489C0.708394 6.32806 0.447978 7.45306 0.380269 9.09369C0.307353 10.7343 0.291727 11.2604 0.296935 15.4479C0.307353 19.6354 0.322978 20.1614 0.401102 21.8072C0.479227 23.4479 0.744852 24.5676 1.12506 25.5468C1.52089 26.5624 2.05214 27.4166 2.91152 28.276C3.77089 29.1301 4.63027 29.6562 5.64589 30.0468C6.62506 30.427 7.75006 30.6822 9.39069 30.7551C11.0313 30.8281 11.5574 30.8437 15.7449 30.8385C19.9324 30.8281 20.4584 30.8124 22.1042 30.7343C23.7449 30.6562 24.8594 30.3906 25.8438 30.0104C26.8542 29.6145 27.7136 29.0833 28.5678 28.2239C29.4219 27.3645 29.948 26.5051 30.3438 25.4895C30.724 24.5104 30.9792 23.3854 31.0521 21.7499C31.1251 20.1041 31.1407 19.5781 31.1303 15.3906C31.1251 11.2031 31.1042 10.677 31.0261 9.0364C30.948 7.39056 30.6876 6.27077 30.3021 5.29161C29.9063 4.28119 29.3803 3.42181 28.5209 2.56765C27.6615 1.70827 26.8021 1.18223 25.7865 0.791605C24.8021 0.411397 23.6824 0.156189 22.0417 0.0832717C20.4011 0.0103544 19.8751 -0.00526964 15.6876 -6.16364e-05C11.5001 0.0103544 10.974 0.02598 9.32819 0.109313ZM9.51048 27.9843C8.00527 27.9166 7.18756 27.6666 6.64589 27.4583C5.92714 27.1822 5.41152 26.8437 4.86985 26.3072C4.32819 25.7708 3.99485 25.2551 3.7136 24.5364C3.50006 23.9947 3.24485 23.177 3.17714 21.677C3.09902 20.052 3.08339 19.5624 3.07298 15.4479C3.06777 11.3281 3.08339 10.8437 3.1511 9.21348C3.21881 7.71348 3.46881 6.89577 3.67714 6.35411C3.95319 5.63015 4.29173 5.11973 4.82819 4.57806C5.36464 4.0364 5.88027 3.70306 6.59902 3.42181C7.14069 3.20827 7.95839 2.95827 9.45839 2.88536C11.0886 2.80723 11.573 2.7916 15.6876 2.78119C19.8074 2.77598 20.2969 2.79161 21.9219 2.85931C23.4219 2.92702 24.2396 3.17702 24.7813 3.38536C25.5053 3.6614 26.0157 3.99473 26.5574 4.5364C27.099 5.07286 27.4376 5.58848 27.7188 6.30723C27.9271 6.8489 28.1824 7.66661 28.2501 9.16661C28.3282 10.7916 28.349 11.2812 28.3542 15.3958C28.3594 19.5156 28.349 19.9999 28.2761 21.6249C28.2084 23.1301 27.9636 23.9479 27.7501 24.4895C27.474 25.2135 27.1407 25.7239 26.599 26.2656C26.0626 26.8072 25.5521 27.1406 24.8282 27.4218C24.2865 27.6354 23.4688 27.8854 21.9688 27.9583C20.3438 28.0364 19.8542 28.052 15.7396 28.0624C11.6199 28.0676 11.1355 28.052 9.51048 27.9843ZM22.0782 7.17702C22.0782 7.42181 22.1251 7.6614 22.2188 7.88536C22.3178 8.11452 22.448 8.31244 22.6251 8.48431C22.7969 8.6614 22.9949 8.79161 23.224 8.88536C23.4532 8.97911 23.6876 9.02598 23.9324 9.02598C24.1771 9.02598 24.4115 8.97911 24.6407 8.88536C24.8646 8.79161 25.0678 8.65619 25.2396 8.47911C25.4115 8.30723 25.5469 8.10931 25.6407 7.88015C25.7344 7.65098 25.7813 7.41661 25.7813 7.17181C25.7813 6.92702 25.7292 6.69265 25.6355 6.46348C25.5417 6.23952 25.4115 6.0364 25.2344 5.86452C25.0626 5.69265 24.8594 5.55723 24.6355 5.46348C24.4063 5.36973 24.1719 5.32286 23.9271 5.32286C23.6824 5.32806 23.4428 5.37494 23.2188 5.46869C22.9896 5.56244 22.7917 5.69786 22.6199 5.86973C22.448 6.0416 22.3126 6.24473 22.2188 6.46869C22.1251 6.69786 22.0782 6.93223 22.0782 7.17702ZM7.79694 15.4374C7.80735 19.8072 11.3594 23.3437 15.7292 23.3385C20.099 23.3281 23.6407 19.776 23.6303 15.4062C23.6251 11.0312 20.073 7.49473 15.698 7.49994C11.3282 7.51035 7.79173 11.0624 7.79694 15.4374ZM10.573 15.427C10.573 14.7499 10.7032 14.0937 10.9636 13.4635C11.224 12.8333 11.5938 12.276 12.073 11.7916C12.5521 11.3072 13.1094 10.9374 13.7396 10.677C14.3699 10.4114 15.0209 10.2812 15.7032 10.2812C16.3855 10.276 17.0417 10.4062 17.6719 10.6666C18.3021 10.927 18.8594 11.2968 19.3438 11.776C19.823 12.2604 20.198 12.8124 20.4584 13.4426C20.724 14.0729 20.8542 14.7291 20.8542 15.4114C20.8542 16.0885 20.7292 16.7447 20.4688 17.3749C20.2084 18.0051 19.8386 18.5624 19.3542 19.0468C18.8751 19.5312 18.3178 19.901 17.6928 20.1614C17.0626 20.427 16.4063 20.5572 15.724 20.5572C15.0417 20.5624 14.3855 20.4322 13.7553 20.1718C13.1251 19.9114 12.5678 19.5416 12.0886 19.0624C11.6042 18.5781 11.2344 18.026 10.9688 17.3958C10.7084 16.7656 10.5782 16.1093 10.573 15.427Z" fill="#2E4886"/>
</g>
</svg>
