<svg width="61" height="78" viewBox="0 0 61 78" fill="none" xmlns="http://www.w3.org/2000/svg">
<mask id="mask0_1_11251" style="mask-type:luminance" maskUnits="userSpaceOnUse" x="0" y="0" width="50" height="65">
<path d="M0 0H49.0052V64.9531H0V0Z" fill="white"/>
</mask>
<g mask="url(#mask0_1_11251)">
<path d="M46.8281 0H21.0104C20.9323 0 20.875 0.0364587 20.8021 0.0416667C20.7292 0.052084 20.6667 0.0677097 20.599 0.0885417C20.3229 0.161459 20.0625 0.281251 19.8646 0.479167L0.505208 19.8385C0.307291 20.0365 0.187501 20.2917 0.114583 20.5677C0.09375 20.6406 0.083334 20.7031 0.0729167 20.776C0.0625007 20.8438 0.03125 20.9063 0.03125 20.9792V62.9375C0.03125 63.8281 0.750001 64.5521 1.64063 64.5521H46.8281C47.7188 64.5521 48.4427 63.8281 48.4427 62.9375V1.61458C48.4427 0.723958 47.7188 0 46.8281 0ZM19.3958 5.51042V17.7552C19.3958 18.6458 18.6719 19.3698 17.7813 19.3698H5.53646L19.3958 5.51042Z" fill="#CEAA67"/>
</g>
<path d="M53.2813 6.45837H51.6719V66.1667C51.6719 67.0573 50.9479 67.7813 50.0573 67.7813H6.48438V69.3959C6.48438 70.2865 7.20833 71.0053 8.09896 71.0053H53.2813C54.1719 71.0053 54.8958 70.2865 54.8958 69.3959V8.07296C54.8958 7.18233 54.1719 6.45837 53.2813 6.45837Z" fill="#CEAA67"/>
<mask id="mask1_1_11251" style="mask-type:luminance" maskUnits="userSpaceOnUse" x="11" y="11" width="50" height="67">
<path d="M11.6719 11.6199H60.9583V77.948H11.6719V11.6199Z" fill="white"/>
</mask>
<g mask="url(#mask1_1_11251)">
<path d="M59.7396 12.9115H58.125V72.6198C58.125 73.5105 57.401 74.2344 56.5104 74.2344H12.9375V75.849C12.9375 76.7396 13.6615 77.4636 14.5521 77.4636H59.7396C60.6302 77.4636 61.3542 76.7396 61.3542 75.849V14.5261C61.3542 13.6355 60.6302 12.9115 59.7396 12.9115Z" fill="#CEAA67"/>
</g>
</svg>
