<svg width="78" height="78" viewBox="0 0 78 78" fill="none" xmlns="http://www.w3.org/2000/svg">
<path d="M33.2083 23.2656L49.401 7.07292C50.9427 5.53125 50.9427 3.21875 49.401 1.67188C47.8593 0.130208 45.5468 0.130208 44.0052 1.67188L27.8073 17.4792C26.2708 19.026 26.2708 21.724 27.8073 23.2656C29.3541 24.4219 31.6718 24.4219 33.2083 23.2656Z" fill="#CEAA67"/>
<path d="M76.776 28.6667C75.2344 27.1199 72.9219 27.1199 71.3802 28.6667L55.1875 44.8542C53.6458 46.3959 53.6458 48.7084 55.1875 50.2553C56.7344 51.797 59.0417 51.797 60.5781 50.2553L76.776 34.0574C78.3177 32.5209 78.3177 30.2032 76.776 28.6667Z" fill="#CEAA67"/>
<mask id="mask0_1_11248" style="mask-type:luminance" maskUnits="userSpaceOnUse" x="0" y="9" width="69" height="69">
<path d="M0.822876 9.66675H68.6666V77.1407H0.822876V9.66675Z" fill="white"/>
</mask>
<g mask="url(#mask0_1_11248)">
<path d="M67.5208 24.8125L53.2552 10.5469C52.4895 9.77083 51.7135 9.77083 50.9427 10.5469L37.0625 24.8125C36.2916 25.5781 36.2916 26.349 37.0625 27.1198L41.302 31.3646L1.97913 70.6927C0.437459 72.2344 0.437459 74.5469 1.97913 76.0885C2.75517 76.8594 4.67704 78.0156 7.37496 76.0885L46.7031 36.7552L50.9427 41C51.7135 41.776 52.4895 41.776 53.2552 41L67.5208 26.7344C68.2968 26.349 68.2968 25.1927 67.5208 24.8125Z" fill="#CEAA67"/>
</g>
</svg>
