<svg width="75" height="75" viewBox="0 0 75 75" fill="none" xmlns="http://www.w3.org/2000/svg">
<mask id="mask0_1_11247" style="mask-type:luminance" maskUnits="userSpaceOnUse" x="0" y="0" width="75" height="11">
<path d="M0.869812 0.567749H74.8229V11H0.869812V0.567749Z" fill="white"/>
</mask>
<g mask="url(#mask0_1_11247)">
<path d="M72.6615 5.19796H40.2396V2.88025C40.2396 1.49483 39.3125 0.567749 37.9219 0.567749C36.5365 0.567749 35.6094 1.49483 35.6094 2.88025V5.19796H3.18752C1.7969 5.19796 0.869812 6.12504 0.869812 7.51567C0.869812 8.90108 1.7969 9.82817 3.18752 9.82817H72.6615C74.0521 9.82817 74.9792 8.90108 74.9792 7.51567C74.9792 6.12504 74.0521 5.19796 72.6615 5.19796Z" fill="#CEAA67"/>
</g>
<mask id="mask1_1_11247" style="mask-type:luminance" maskUnits="userSpaceOnUse" x="14" y="63" width="14" height="12">
<path d="M14.3333 63H27.6666V74.5156H14.3333V63Z" fill="white"/>
</mask>
<g mask="url(#mask1_1_11247)">
<path d="M15.2291 70.9635C14.5364 72.125 14.7656 73.5104 15.6927 74.2083C16.1562 74.4375 16.6198 74.6719 17.0833 74.6719C17.776 74.6719 18.4739 74.4375 18.9375 73.7448L26.5781 63.0938H20.7864L15.2291 70.9635Z" fill="#CEAA67"/>
</g>
<mask id="mask2_1_11247" style="mask-type:luminance" maskUnits="userSpaceOnUse" x="49" y="63" width="14" height="12">
<path d="M49 63H62.3333V74.5156H49V63Z" fill="white"/>
</mask>
<g mask="url(#mask2_1_11247)">
<path d="M60.6198 70.9635L55.0625 63.0938H49.2708L56.9114 73.7448C57.375 74.4375 58.0729 74.6719 58.7656 74.6719C59.2291 74.6719 59.6927 74.4375 60.1562 74.2083C61.0833 73.5104 61.3125 72.125 60.6198 70.9635Z" fill="#CEAA67"/>
</g>
<path d="M5.50519 14.4584V56.1459C5.50519 57.5365 6.43227 58.4584 7.81769 58.4584H68.0312C69.1875 58.4584 70.3437 57.5365 70.3437 56.1459V14.4584H5.50519ZM29.125 36.2292L36.0729 26.9636C37 25.8073 38.8489 25.8073 39.776 26.9636L45.1042 33.9115L56.9114 20.25C57.8385 19.323 59.2292 19.0938 60.1562 20.0209C61.0833 20.9427 61.3125 22.3334 60.3854 23.2605L46.7239 39.2396C46.2604 39.7032 45.5677 39.9323 44.8698 39.9323C44.1771 39.9323 43.4844 39.4688 43.0208 39.0052L37.9219 32.2917L32.8281 39.0052C32.3646 39.7032 31.6719 39.9323 30.9791 39.9323C30.5156 39.9323 30.0521 39.7032 29.5885 39.4688C28.6614 38.7761 28.4323 37.1563 29.125 36.2292ZM58.5364 49.198H24.0312V51.5105C24.0312 52.9011 23.1041 53.8282 21.7135 53.8282C20.3229 53.8282 19.3958 52.9011 19.3958 51.5105V49.198H17.0833C15.6927 49.198 14.7656 48.2709 14.7656 46.8802C14.7656 45.4896 15.6927 44.5677 17.0833 44.5677H19.3958V21.4063C19.3958 20.0209 20.3229 19.0938 21.7135 19.0938C23.1041 19.0938 24.0312 20.0209 24.0312 21.4063V44.5677H58.5364C59.9219 44.5677 60.8489 45.4896 60.8489 46.8802C60.8489 48.2709 59.6927 49.198 58.5364 49.198Z" fill="#CEAA67"/>
</svg>
