<svg width="23" height="24" viewBox="0 0 23 24" fill="none" xmlns="http://www.w3.org/2000/svg">
<mask id="mask0_11_66" style="mask-type:luminance" maskUnits="userSpaceOnUse" x="0" y="0" width="23" height="24">
<path d="M0.119873 0.286621H22.1095V23.271H0.119873V0.286621Z" fill="white"/>
</mask>
<g mask="url(#mask0_11_66)">
<path fill-rule="evenodd" clip-rule="evenodd" d="M18.9063 3.62516C16.8386 1.46891 14.0938 0.286621 11.1615 0.286621C5.13029 0.286621 0.213623 5.39079 0.213623 11.6668C0.213623 13.672 0.718831 15.6304 1.67716 17.3595L0.119873 23.2554L5.92716 21.672C7.52612 22.5783 9.32821 23.0575 11.1563 23.0575H11.1615C17.198 23.0575 22.1095 17.9533 22.1095 11.6772C22.1147 8.63558 20.974 5.7762 18.9063 3.62516ZM11.1615 21.1356C9.52612 21.1356 7.92716 20.6772 6.52612 19.8179L6.19279 19.6147L2.75008 20.5522L3.67196 17.0627L3.45321 16.7033C2.54175 15.1981 2.06258 13.4533 2.06258 11.6668C2.06258 6.45329 6.14591 2.2085 11.1667 2.2085C13.599 2.2085 15.8803 3.19287 17.599 4.97933C19.3178 6.771 20.2657 9.146 20.2605 11.6772C20.2605 16.8908 16.1772 21.1356 11.1615 21.1356ZM16.1563 14.0522C15.8803 13.9064 14.5365 13.2189 14.2865 13.1252C14.0365 13.0314 13.8542 12.9845 13.672 13.2658C13.4897 13.5522 12.9636 14.1929 12.8022 14.3856C12.6459 14.5731 12.4845 14.5991 12.2084 14.4533C11.9376 14.3127 11.0574 14.0106 10.0105 13.0418C9.198 12.2866 8.64591 11.3595 8.48966 11.0731C8.32821 10.7866 8.47404 10.6356 8.60946 10.4897C8.72925 10.3647 8.88029 10.1616 9.02091 9.99495C9.15633 9.82829 9.20321 9.7085 9.29175 9.521C9.3855 9.32829 9.33862 9.16162 9.27091 9.021C9.20321 8.88037 8.65633 7.47933 8.42716 6.91162C8.20321 6.35433 7.97925 6.43246 7.81258 6.42204C7.65112 6.41162 7.46883 6.41162 7.28654 6.41162C7.10425 6.41162 6.80737 6.48454 6.55737 6.76579C6.30737 7.05225 5.59904 7.73975 5.59904 9.14079C5.59904 10.5366 6.57821 11.8908 6.71883 12.0835C6.85425 12.271 8.64591 15.146 11.3907 16.3752C12.0417 16.672 12.5522 16.8439 12.948 16.9741C13.6042 17.1929 14.2032 17.1616 14.672 17.0887C15.198 17.0054 16.2917 16.4012 16.5209 15.7345C16.7449 15.0731 16.7449 14.5002 16.6772 14.3856C16.6095 14.2658 16.4272 14.1929 16.1563 14.0522Z" fill="white"/>
</g>
</svg>
